<svg xmlns="http://www.w3.org/2000/svg" width="25" height="25.009" viewBox="0 0 25 25.009">
    <g id="business-and-trade" transform="translate(0 -0.178)">
        <path id="Path_29" data-name="Path 29" d="M13.68,1.954,2.142.2A1.861,1.861,0,0,0,.651.611,1.877,1.877,0,0,0,0,2.017v22.12a1.053,1.053,0,0,0,1.05,1.05H4.462V19.676A1.833,1.833,0,0,1,6.3,17.839H8.924a1.833,1.833,0,0,1,1.837,1.837v5.512h4.462V3.771A1.838,1.838,0,0,0,13.68,1.954ZM5.774,15.476H4.2a.787.787,0,1,1,0-1.575H5.774a.787.787,0,0,1,0,1.575Zm0-3.15H4.2a.787.787,0,1,1,0-1.575H5.774a.787.787,0,1,1,0,1.575Zm0-3.15H4.2A.787.787,0,1,1,4.2,7.6H5.774a.787.787,0,0,1,0,1.575Zm0-3.15H4.2a.787.787,0,1,1,0-1.575H5.774a.787.787,0,1,1,0,1.575Zm5.249,9.449H9.449a.787.787,0,0,1,0-1.575h1.575a.787.787,0,0,1,0,1.575Zm0-3.15H9.449a.787.787,0,1,1,0-1.575h1.575a.787.787,0,1,1,0,1.575Zm0-3.15H9.449a.787.787,0,0,1,0-1.575h1.575a.787.787,0,0,1,0,1.575Zm0-3.15H9.449a.787.787,0,1,1,0-1.575h1.575a.787.787,0,1,1,0,1.575Z" transform="translate(0 0)"/>
        <path id="Path_30" data-name="Path 30" d="M22.975,10.916,15.5,9.351V24.73h7.086a1.839,1.839,0,0,0,1.837-1.837V12.712A1.828,1.828,0,0,0,22.975,10.916ZM20.487,21.581H18.912a.787.787,0,0,1,0-1.575h1.575a.787.787,0,0,1,0,1.575Zm0-3.15H18.912a.787.787,0,1,1,0-1.575h1.575a.787.787,0,0,1,0,1.575Zm0-3.15H18.912a.787.787,0,1,1,0-1.575h1.575a.787.787,0,0,1,0,1.575Z" transform="translate(0.576 0.457)"/>
    </g>
</svg>
