<svg xmlns="http://www.w3.org/2000/svg" width="25" height="23.28" viewBox="0 0 25 23.28">
    <g id="home-icon-silhouette" transform="translate(0 -17.047)">
        <g id="Group_15" data-name="Group 15" transform="translate(0.001 17.047)">
            <g id="Group_14" data-name="Group 14" transform="translate(0 0)">
                <path id="Path_40" data-name="Path 40" d="M24.581,27.927l-3.789-3.919V19.482a1.434,1.434,0,1,0-2.866,0v1.563l-2.821-2.918a3.68,3.68,0,0,0-5.211,0L.42,27.927a1.519,1.519,0,0,0,0,2.1,1.4,1.4,0,0,0,2.027,0l9.473-9.8a.826.826,0,0,1,1.159,0l9.474,9.8a1.4,1.4,0,0,0,2.027,0A1.518,1.518,0,0,0,24.581,27.927Z" transform="translate(-0.001 -17.047)" fill="#06062c"/>
                <path id="Path_41" data-name="Path 41" d="M78.036,127.961a.672.672,0,0,0-.982,0l-8.224,8.616a.748.748,0,0,0-.2.515v6.284a2.611,2.611,0,0,0,2.548,2.67h4.072v-6.608h4.6v6.608h4.072a2.611,2.611,0,0,0,2.548-2.67v-6.284a.745.745,0,0,0-.2-.515Z" transform="translate(-65.045 -122.767)" fill="#06062c"/>
            </g>
        </g>
    </g>
</svg>
