<svg xmlns="http://www.w3.org/2000/svg" xmlns:xlink="http://www.w3.org/1999/xlink" width="299.051" height="187.741" viewBox="0 0 299.051 187.741">
    <defs>
        <linearGradient id="linear-gradient" x1="0.237" y1="1.472" x2="1.53" y2="0.818" gradientUnits="objectBoundingBox">
            <stop offset="0" stop-color="#8515db"/>
            <stop offset="1" stop-color="#d201fa"/>
        </linearGradient>
    </defs>
    <g id="result_2_" data-name="result (2)" transform="translate(176.698 293.695)">
        <g id="Group_61" data-name="Group 61" transform="translate(-176.698 -171.941)">
            <path id="Path_105" data-name="Path 105" d="M43.1-32.193a20.114,20.114,0,0,0,7.847-1.544,20.008,20.008,0,0,0,6.42-4.25A20.67,20.67,0,0,0,61.7-44.275a18.635,18.635,0,0,0,1.6-7.715A17.516,17.516,0,0,0,61.7-59.5a18.029,18.029,0,0,0-4.339-5.881,19.955,19.955,0,0,0-6.42-3.814A22.352,22.352,0,0,0,43.1-70.564H26.218a3.884,3.884,0,0,1-2.854-1.194,3.93,3.93,0,0,1-1.189-2.882,3.768,3.768,0,0,1,1.189-2.794A3.935,3.935,0,0,1,26.218-78.6H59.089V-94.436H26.218a20.267,20.267,0,0,0-7.906,1.544,20.242,20.242,0,0,0-6.42,4.22,19.8,19.8,0,0,0-4.31,6.289A19.153,19.153,0,0,0,6.008-74.64,19.153,19.153,0,0,0,7.582-66.9a20.131,20.131,0,0,0,4.31,6.317,20.4,20.4,0,0,0,6.42,4.28,19.933,19.933,0,0,0,7.906,1.573H43.1a7.05,7.05,0,0,1,2.854.523,2.161,2.161,0,0,1,1.189,2.213A3.775,3.775,0,0,1,45.953-49.2,3.934,3.934,0,0,1,43.1-48.032H6.008v15.838Z" transform="translate(-6.008 96.993)" fill="#8515db"/>
            <path id="Path_106" data-name="Path 106" d="M112.5-32.251h16.287l24.253-62.361H134.492l-13.849,38.9-13.91-38.9H88.247Z" transform="translate(-33.062 97.05)" fill="#8515db"/>
            <path id="Path_107" data-name="Path 107" d="M246.2-33.413V-95.728h-3.924l-6.3,7.4a45.055,45.055,0,0,0-4.844-3.906,36.91,36.91,0,0,0-5.439-3.147,32.153,32.153,0,0,0-5.886-2.1,25.2,25.2,0,0,0-6.122-.758,33.057,33.057,0,0,0-12.63,2.419,31.567,31.567,0,0,0-10.344,6.792,31.819,31.819,0,0,0-6.985,10.463,34.269,34.269,0,0,0-2.555,13.379,35.9,35.9,0,0,0,2.555,13.931A30.147,30.147,0,0,0,190.71-40.9a30.045,30.045,0,0,0,10.344,6.442,35.7,35.7,0,0,0,12.63,2.215,24.781,24.781,0,0,0,6.094-.758,33.922,33.922,0,0,0,5.855-2.069,36.326,36.326,0,0,0,5.438-3.089,52.109,52.109,0,0,0,4.9-3.819l6.3,8.569ZM229.854-65.183a16.255,16.255,0,0,1-1.278,6.324,18.128,18.128,0,0,1-3.478,5.422,17.265,17.265,0,0,1-5.142,3.789,14.177,14.177,0,0,1-6.271,1.428,17.631,17.631,0,0,1-6.271-1.108,14.3,14.3,0,0,1-5.111-3.263,15.289,15.289,0,0,1-3.419-5.334,19.748,19.748,0,0,1-1.248-7.258,19.735,19.735,0,0,1,1.248-7.258,15.274,15.274,0,0,1,3.419-5.334,14.322,14.322,0,0,1,5.111-3.265,17.667,17.667,0,0,1,6.271-1.108,14.155,14.155,0,0,1,6.271,1.429,17.264,17.264,0,0,1,5.142,3.789,18.141,18.141,0,0,1,3.478,5.42,16.263,16.263,0,0,1,1.278,6.326Z" transform="translate(-63.63 98.235)" fill="#8515db"/>
            <path id="Path_108" data-name="Path 108" d="M307.643-32.251V-66.6a11.82,11.82,0,0,1,.952-4.717,11.9,11.9,0,0,1,2.614-3.842,12.194,12.194,0,0,1,3.924-2.562,12.5,12.5,0,0,1,4.814-.932h14.326V-94.5H319.947A28.94,28.94,0,0,0,309.6-92.6a28.418,28.418,0,0,0-8.915,5.384l-5.35-7.393h-3.924v62.361Z" transform="translate(-99.852 97.05)" fill="#8515db"/>
            <path id="Path_109" data-name="Path 109" d="M419.784-33.413V-95.728h-3.923l-6.3,7.4a45.07,45.07,0,0,0-4.844-3.906,36.91,36.91,0,0,0-5.439-3.147,32.181,32.181,0,0,0-5.884-2.1,25.225,25.225,0,0,0-6.122-.758,33.059,33.059,0,0,0-12.632,2.419A31.577,31.577,0,0,0,364.3-89.025a31.82,31.82,0,0,0-6.985,10.463,34.239,34.239,0,0,0-2.556,13.379,35.87,35.87,0,0,0,2.556,13.931A30.149,30.149,0,0,0,364.3-40.9a30.054,30.054,0,0,0,10.343,6.442,35.7,35.7,0,0,0,12.632,2.215,24.778,24.778,0,0,0,6.092-.758,33.874,33.874,0,0,0,5.855-2.069,36.429,36.429,0,0,0,5.439-3.089,52.293,52.293,0,0,0,4.9-3.819l6.3,8.569ZM403.438-65.183a16.254,16.254,0,0,1-1.278,6.324,18.12,18.12,0,0,1-3.476,5.422,17.286,17.286,0,0,1-5.142,3.789,14.187,14.187,0,0,1-6.271,1.428A17.624,17.624,0,0,1,381-49.328a14.3,14.3,0,0,1-5.113-3.263,15.309,15.309,0,0,1-3.417-5.334,19.711,19.711,0,0,1-1.25-7.258,19.7,19.7,0,0,1,1.25-7.258,15.293,15.293,0,0,1,3.417-5.334A14.329,14.329,0,0,1,381-81.039a17.659,17.659,0,0,1,6.271-1.108,14.165,14.165,0,0,1,6.271,1.429,17.285,17.285,0,0,1,5.142,3.789,18.133,18.133,0,0,1,3.476,5.42,16.262,16.262,0,0,1,1.278,6.326Z" transform="translate(-120.734 98.235)" fill="#8515db"/>
        </g>
        <g id="Group_63" data-name="Group 63" transform="translate(-74.271 -293.694)">
            <g id="Group_62" data-name="Group 62">
                <path id="Path_110" data-name="Path 110" d="M78.634,77.811,64.743,101.872H92.526ZM93.314,98.64v-15.7L81.53,78.23Zm0,21.491V104.168H84.1Zm-16.49-43.78L65.406,71.793,72.43,83.959Zm3.295-5.706H68.729l9.255,3.695Zm40.078,0H108.807l2.133,3.695ZM94.463,50.395,80.375,74.8h28.176Z" transform="translate(-46.786 -38.581)" fill="url(#linear-gradient)"/>
                <path id="Path_111" data-name="Path 111" d="M70.482,22.806a47.677,47.677,0,1,0,47.676,47.677A47.676,47.676,0,0,0,70.482,22.806Zm32.7,63.864a1.149,1.149,0,0,1-.995,1.723H83.5L71.476,109.219a1.149,1.149,0,0,1-1.99,0L57.465,88.392H38.773a1.149,1.149,0,0,1-1-1.723l9.346-16.187L37.777,54.3a1.149,1.149,0,0,1,.995-1.723H57.463L69.487,31.746a1.2,1.2,0,0,1,1.99,0L83.5,52.572h18.692a1.149,1.149,0,0,1,.995,1.723L93.84,70.482Z" transform="translate(-22.806 -22.806)" fill="url(#linear-gradient)"/>
                <path id="Path_112" data-name="Path 112" d="M143.394,112.536l7.025-12.167L139,104.927Zm-20.1,17.91H151.08L137.19,106.387Zm-.788-3.231,11.784-20.41-11.784,4.7ZM111.785,105.67l9.577,3.824,9.577-3.824Zm10.726,43.037,9.216-15.962H122.51Z" transform="translate(-73.685 -67.157)" fill="url(#linear-gradient)"/>
            </g>
        </g>
    </g>
</svg>
