<svg id="jigsaw" xmlns="http://www.w3.org/2000/svg" width="25" height="25" viewBox="0 0 25 25">
    <path id="Path_42" data-name="Path 42" d="M182.921,5.219a1.046,1.046,0,1,0,0,2.091h3.429v4.744h3.236V10.193a2.539,2.539,0,0,1,5.079,0v1.861h3.648V3.6a3.6,3.6,0,0,0-3.6-3.6H186.35V5.187Z" transform="translate(-173.313)"/>
    <path id="Path_43" data-name="Path 43" d="M278.571,184.747a1.046,1.046,0,1,0-2.091,0V188.1h-4.73v3.111h1.861a2.539,2.539,0,0,1,0,5.079H271.75v3.756h8.366a3.6,3.6,0,0,0,3.6-3.6V188.1h-5.142Z" transform="translate(-258.713 -175.048)"/>
    <path id="Path_44" data-name="Path 44" d="M4.978,15.483a1.046,1.046,0,1,0,2.091,0V12.054h4.968V8.8H10.1a2.539,2.539,0,0,1,0-5.079l1.94-.018V0H3.6A3.6,3.6,0,0,0,0,3.6v8.457H4.947Z" transform="translate(0 0)"/>
    <path id="Path_45" data-name="Path 45" d="M15.392,278.772a1.046,1.046,0,1,0,0-2.091H12.037v-4.6H8.563v1.936a2.539,2.539,0,0,1-5.079,0l-.018-1.94H0v8.349a3.6,3.6,0,0,0,3.6,3.6h8.44v-5.25Z" transform="translate(0 -259.022)"/>
</svg>
