<svg xmlns="http://www.w3.org/2000/svg" width="25" height="20.783" viewBox="0 0 25 20.783">
    <g id="group" transform="translate(0 -38.84)">
        <g id="Group_17" data-name="Group 17" transform="translate(19.569 50.06)">
            <g id="Group_16" data-name="Group 16">
                <path id="Path_46" data-name="Path 46" d="M400.389,273.32h-1.895a4.929,4.929,0,0,1,.3,1.694v7.161a2.112,2.112,0,0,1-.122.707H401.8a2.124,2.124,0,0,0,2.122-2.122v-3.9A3.541,3.541,0,0,0,400.389,273.32Z" transform="translate(-398.494 -273.32)"/>
            </g>
        </g>
        <g id="Group_19" data-name="Group 19" transform="translate(0 50.06)">
            <g id="Group_18" data-name="Group 18">
                <path id="Path_47" data-name="Path 47" d="M5.133,275.015a4.928,4.928,0,0,1,.3-1.694H3.537A3.541,3.541,0,0,0,0,276.858v3.9a2.124,2.124,0,0,0,2.122,2.122H5.254a2.112,2.112,0,0,1-.122-.707Z" transform="translate(0 -273.321)"/>
            </g>
        </g>
        <g id="Group_21" data-name="Group 21" transform="translate(6.797 48.218)">
            <g id="Group_20" data-name="Group 20" transform="translate(0 0)">
                <path id="Path_48" data-name="Path 48" d="M144.7,234.815h-4.332a3.541,3.541,0,0,0-3.537,3.537v7.161a.707.707,0,0,0,.707.707h9.99a.707.707,0,0,0,.707-.707v-7.161A3.541,3.541,0,0,0,144.7,234.815Z" transform="translate(-136.829 -234.815)"/>
            </g>
        </g>
        <g id="Group_23" data-name="Group 23" transform="translate(8.247 38.84)">
            <g id="Group_22" data-name="Group 22" transform="translate(0 0)">
                <path id="Path_49" data-name="Path 49" d="M171.367,38.84a4.253,4.253,0,1,0,4.253,4.253A4.258,4.258,0,0,0,171.367,38.84Z" transform="translate(-167.114 -38.84)"/>
            </g>
        </g>
        <g id="Group_25" data-name="Group 25" transform="translate(1.6 42.804)">
            <g id="Group_24" data-name="Group 24">
                <path id="Path_50" data-name="Path 50" d="M36.624,121.689A3.179,3.179,0,1,0,39.8,124.87,3.185,3.185,0,0,0,36.624,121.689Z" transform="translate(-33.443 -121.689)"/>
            </g>
        </g>
        <g id="Group_27" data-name="Group 27" transform="translate(17.038 42.804)">
            <g id="Group_26" data-name="Group 26">
                <path id="Path_51" data-name="Path 51" d="M348.788,121.689a3.181,3.181,0,1,0,3.181,3.181A3.185,3.185,0,0,0,348.788,121.689Z" transform="translate(-345.607 -121.689)"/>
            </g>
        </g>
    </g>
</svg>
